# xmcd
#
# Track frame offsets: 
#        150
#        25727
#        46860
#        72427
#
# Disc length: 1245 seconds
#
# Revision: 3
# Processed by: cddbd v1.5.2PL0 Copyright (c) Steve Scherf et al.
# Submitted via: ExactAudioCopyFreeDBPlugin 1.0
#
DISCID=2c04db04
DTITLE=ベルダンディー - 女神の気持ち
DYEAR=1992
DGENRE=Anime
TTITLE0=女神の気持ち
TTITLE1=愛情
TTITLE2=女神の気持ち(オリジナル・カラオケ)
TTITLE3=愛情(オリジナル・カラオケ)
EXTD=YEAR: 1992
EXTT0=
EXTT1=
EXTT2=
EXTT3=
PLAYORDER=
